<svg width="261" height="295" viewBox="0 0 261 295" fill="none" xmlns="http://www.w3.org/2000/svg">
<rect width="230" height="271" rx="67" fill="#C8BC50" fill-opacity="0.64"/>
<rect x="31" y="24" width="230" height="271" rx="67" fill="#CB4C4C" fill-opacity="0.78"/>
<g clip-path="url(#clip0_0_1)">
<path d="M99.9813 209.872C99.8747 209.525 98.206 208.689 97.5279 208.582C92.4541 207.81 78.2789 207.452 72.2702 221.789C70.4853 226.046 71.3499 234.873 65.1305 242.198C63.394 244.237 57.5355 243.834 56.063 246.164C55.6077 246.88 58.2354 247.859 59.2429 247.864C73.7524 247.976 90.2526 248.278 97.6514 236.649C102.444 229.134 109.158 215.239 99.9813 209.858" fill="#324449"/>
<path d="M89.9305 239.127C88.1359 240.181 86.3606 239.616 85.0238 238.008C83.0935 235.704 84.0913 235.287 79.9403 236.551C78.1263 237.099 76.8088 235.793 75.5567 234.646C74.5564 233.735 74.1495 231.276 74.3433 229.869C74.3917 229.517 74.4305 229.304 74.4741 229.103C74.2994 228.761 74.1627 228.396 74.0672 228.015C73.7209 226.818 73.8783 225.445 74.2852 224.287C74.416 223.92 73.1227 223.892 71.6284 223.985C70.5894 228.644 70.4247 235.958 65.1281 242.198C63.3916 244.237 57.5331 243.834 56.0606 246.164C55.6052 246.88 58.233 247.859 59.2405 247.864C73.7499 247.976 90.2502 248.278 97.649 236.649L97.7362 236.515C95.2804 236.593 92.689 237.51 89.9305 239.113" fill="#41DAC8"/>
<path d="M145.471 133.243C114.229 172.595 92.396 208.213 96.7191 212.78C101.045 217.356 129.882 189.158 161.124 149.795C192.376 110.443 214.197 74.8246 209.876 70.2489C205.561 65.6816 176.723 93.8825 145.471 133.243Z" fill="#FFC17D"/>
</g>
<defs>
<clipPath id="clip0_0_1">
<rect width="155" height="179" fill="white" transform="translate(56 70)"/>
</clipPath>
</defs>
</svg>
